<?xml version="1.0" encoding="UTF-8" standalone="no"?>
<!-- Created with Inkscape (http://www.inkscape.org/) -->

<svg
   version="1.1"
   id="svg1"
   width="372.79999"
   height="341.12"
   viewBox="0 0 372.79999 341.12"
   sodipodi:docname="Chessnut.svg"
   inkscape:version="1.4 (86a8ad7, 2024-10-11)"
   xmlns:inkscape="http://www.inkscape.org/namespaces/inkscape"
   xmlns:sodipodi="http://sodipodi.sourceforge.net/DTD/sodipodi-0.dtd"
   xmlns="http://www.w3.org/2000/svg"
   xmlns:svg="http://www.w3.org/2000/svg">
  <defs
     id="defs1" />
  <sodipodi:namedview
     id="namedview1"
     pagecolor="#ffffff"
     bordercolor="#000000"
     borderopacity="0.25"
     inkscape:showpageshadow="2"
     inkscape:pageopacity="0.0"
     inkscape:pagecheckerboard="0"
     inkscape:deskcolor="#d1d1d1"
     inkscape:zoom="2.4917918"
     inkscape:cx="186.41204"
     inkscape:cy="170.56"
     inkscape:window-width="1860"
     inkscape:window-height="1052"
     inkscape:window-x="52"
     inkscape:window-y="-8"
     inkscape:window-maximized="1"
     inkscape:current-layer="g1" />
  <g
     inkscape:groupmode="layer"
     inkscape:label="Image"
     id="g1">
    <path
       style="fill:#000000"
       d="M 94.47679,338.85596 C 73.197415,337.69868 54.737945,332.06486 40.398983,322.35146 35.651015,319.13513 33.080937,316.98163 28.462748,312.34993 11.826753,295.66528 2.5215197,271.89068 0.64640945,241.28 -0.37378777,224.62554 1.1326606,206.90684 4.8136007,192.2659 23.823532,116.65388 67.462689,61.396205 133.52412,29.287415 169.06767,12.011672 210.32432,1.8767259 251.35999,0.34032176 c 5.81325,-0.217652 17.48387,-0.0535038 19.97926,0.28100986 0.0766,0.0102676 -2.16123,2.35866838 -4.97295,5.21866828 -5.84987,5.9503231 -8.17982,8.7641291 -11.69295,14.1211861 -2.41211,3.678146 -6.76564,11.984043 -7.1601,13.660426 -0.18383,0.781256 0.80182,1.494687 20.0667,14.524502 11.14302,7.536588 20.44577,13.873735 20.67277,14.082548 0.22701,0.208813 3.21487,9.346323 6.63971,20.30558 3.42483,10.959256 6.30319,20.049238 6.39634,20.199958 0.0931,0.15072 16.15011,14.32617 35.68213,31.501 l 35.51276,31.22696 -0.0818,26.5671 -0.0818,26.56709 -33.07436,14.5608 c -18.1909,8.00843 -33.10351,14.51626 -33.13914,14.46182 -0.0356,-0.0544 -0.69245,-1.17897 -1.4596,-2.49897 -3.87869,-6.67384 -7.96316,-11.87167 -13.14981,-16.73426 -4.53831,-4.25476 -8.26242,-6.859 -13.57709,-9.49433 -8.11991,-4.02634 -12.19371,-5.00365 -22.72,-5.45056 -11.90632,-0.5055 -20.94048,-1.32893 -30.24,-2.75627 -27.82012,-4.26999 -48.42859,-13.09489 -61.94191,-26.52458 -7.25984,-7.21491 -11.84699,-14.68021 -14.96795,-24.35936 -1.88085,-5.83316 -2.50105,-9.89898 -2.67872,-17.56064 -0.25917,-11.17619 0.81651,-17.11064 5.29037,-29.18674 1.51327,-4.08471 2.80353,-7.37461 2.86725,-7.31089 0.0637,0.0637 0.75296,4.02451 1.53164,8.80176 0.77868,4.77725 1.77282,10.09441 2.2092,11.81591 7.23267,28.53274 29.12805,46.65481 64.01537,52.98339 8.44419,1.53178 12.09935,1.8134 27.19475,2.09529 14.26296,0.26634 18.47045,0.56013 25.6,1.78754 17.75284,3.05628 33.33619,10.52788 43.6023,20.9056 l 2.7977,2.82812 9.92,-4.72407 9.92,-4.72406 v -9.54619 -9.54618 l -33.44,-29.34983 -33.44,-29.34983 -6.2405,-18.57651 -6.2405,-18.576507 -27.72761,-16.083402 -27.72761,-16.083402 -0.1407,-1.44 c -0.32414,-3.317623 0.88884,-7.352173 3.46821,-11.535781 0.78444,-1.272334 1.38631,-2.349157 1.33749,-2.392939 -0.17142,-0.153708 -11.66193,3.571665 -16.63082,5.391929 C 168.63662,49.545352 146.07305,61.632431 126.24,76.47404 83.723338,108.29041 55.688475,150.54662 46.409805,196.8 c -2.566615,12.79436 -3.628746,22.21744 -3.642975,32.32 -0.01474,10.46837 1.075086,18.32064 3.668777,26.43368 3.387732,10.59679 7.982572,18.10964 15.538449,25.40632 9.160577,8.84633 19.726036,14.21271 34.505941,17.52617 l 3.840003,0.86088 104.55541,0.16647 104.55541,0.16648 20.57368,19.09646 c 11.31553,10.50305 20.84391,19.39505 21.17419,19.76 l 0.60049,0.66354 -126.36959,-0.0479 c -69.50328,-0.0264 -128.423036,-0.15961 -130.9328,-0.2961 z"
       id="path1" />
  </g>
</svg>
