<?xml version="1.0" encoding="UTF-8" standalone="no"?>
<!-- Created with Inkscape (http://www.inkscape.org/) -->

<svg
   width="210mm"
   height="297mm"
   viewBox="0 0 210 297"
   version="1.1"
   id="svg1"
   inkscape:version="1.4 (86a8ad7, 2024-10-11)"
   sodipodi:docname="jose.svg"
   xmlns:inkscape="http://www.inkscape.org/namespaces/inkscape"
   xmlns:sodipodi="http://sodipodi.sourceforge.net/DTD/sodipodi-0.dtd"
   xmlns="http://www.w3.org/2000/svg"
   xmlns:svg="http://www.w3.org/2000/svg">
  <sodipodi:namedview
     id="namedview1"
     pagecolor="#ffffff"
     bordercolor="#000000"
     borderopacity="0.25"
     inkscape:showpageshadow="2"
     inkscape:pageopacity="0.0"
     inkscape:pagecheckerboard="0"
     inkscape:deskcolor="#d1d1d1"
     inkscape:document-units="mm"
     inkscape:zoom="0.75722503"
     inkscape:cx="398.16433"
     inkscape:cy="532.20639"
     inkscape:window-width="1820"
     inkscape:window-height="1052"
     inkscape:window-x="92"
     inkscape:window-y="-8"
     inkscape:window-maximized="1"
     inkscape:current-layer="layer1" />
  <defs
     id="defs1" />
  <g
     inkscape:label="Ebene 1"
     inkscape:groupmode="layer"
     id="layer1">
    <rect
       style="fill:#05059b;stroke-width:0.615559;fill-opacity:1"
       id="rect1"
       width="70.555557"
       height="70.555557"
       x="39.832939"
       y="140.46353" />
    <g
       id="g2"
       transform="translate(3.3120337,98.461747)">
      <text
         xml:space="preserve"
         style="font-style:normal;font-variant:normal;font-weight:normal;font-stretch:normal;font-size:70.5556px;font-family:'Chess Berlin';-inkscape-font-specification:'Chess Berlin';text-align:start;writing-mode:lr-tb;direction:ltr;text-anchor:start;fill:#1aa300;fill-opacity:1;stroke:#1aa300;stroke-width:3;stroke-dasharray:none;stroke-opacity:1"
         x="37.037647"
         y="112.16118"
         id="text2"><tspan
           sodipodi:role="line"
           id="tspan2"
           style="fill:#1aa300;fill-opacity:1;stroke:#1aa300;stroke-width:3;stroke-dasharray:none;stroke-opacity:1"
           x="37.037647"
           y="112.16118">h</tspan></text>
      <path
         style="fill:#1aa300;fill-opacity:1;stroke:#1aa300;stroke-width:3.96184;stroke-dasharray:none;stroke-opacity:1"
         d="m 61.786508,100.25917 c 0.672619,-0.16493 3.244075,-0.468567 5.714349,-0.674735 l 4.491411,-0.374854 1.655061,-1.82273 c 0.910283,-1.002504 2.151782,-2.393816 2.758885,-3.091802 l 1.103823,-1.269069 v -4.583578 -4.583581 h -2.581878 c -3.006948,0 -3.043145,-0.02323 -5.988691,-3.843528 -1.111297,-1.441323 -2.141582,-2.758241 -2.289524,-2.926482 -0.147944,-0.16824 -2.897965,1.064146 -6.11116,2.738639 l -5.842178,3.044531 -1.259458,-1.277146 -1.259462,-1.277147 5.153824,-5.028282 5.153821,-5.028281 v -2.056996 c 0,-1.613246 0.150757,-2.19343 0.698826,-2.689423 0.691631,-0.625919 0.698822,-0.610296 0.698822,1.518198 v 2.150626 h 5.321628 5.321628 l -3.262246,-3.27587 c -1.794237,-1.801728 -3.127631,-3.356533 -2.9631,-3.455122 0.164533,-0.09859 1.55703,-0.446133 3.094442,-0.772311 3.907673,-0.829059 4.018238,-0.868635 4.018238,-1.438299 0,-0.44241 0.102351,-0.443648 0.786175,-0.0095 0.432397,0.274513 1.845762,0.91717 3.140813,1.428126 3.83564,1.513332 5.532826,2.613591 8.336629,5.404511 2.028129,2.018808 2.85133,3.137469 3.487377,4.739066 0.817663,2.058908 0.834668,2.335932 0.949122,15.461472 l 0.116538,13.364997 -15.833328,-0.0358 c -9.607415,-0.0217 -15.352448,-0.15367 -14.610387,-0.33565 z"
         id="path2" />
      <text
         xml:space="preserve"
         style="font-style:normal;font-variant:normal;font-weight:normal;font-stretch:normal;font-size:70.5556px;font-family:'Chess Berlin';-inkscape-font-specification:'Chess Berlin';text-align:start;writing-mode:lr-tb;direction:ltr;text-anchor:start;fill:#ffffff;fill-opacity:1;stroke-width:1"
         x="37.037647"
         y="112.16119"
         id="text1"><tspan
           sodipodi:role="line"
           id="tspan1"
           style="fill:#ffffff;fill-opacity:1;stroke-width:1"
           x="37.037647"
           y="112.16119">h</tspan></text>
    </g>
    <g
       id="g7"
       inkscape:export-filename="ico\jose24.png"
       inkscape:export-xdpi="8.6399994"
       inkscape:export-ydpi="8.6399994">
      <g
         id="g6">
        <rect
           style="fill:#05059b;fill-opacity:1;stroke-width:0.615559"
           id="rect2"
           width="70.555557"
           height="70.555557"
           x="39.832939"
           y="61.845886" />
        <text
           xml:space="preserve"
           style="font-style:normal;font-variant:normal;font-weight:normal;font-stretch:normal;font-size:70.5556px;font-family:'Chess Berlin';-inkscape-font-specification:'Chess Berlin';text-align:start;writing-mode:lr-tb;direction:ltr;text-anchor:start;fill:#1aa300;fill-opacity:1;stroke:#1aa300;stroke-width:3;stroke-dasharray:none;stroke-opacity:1"
           x="40.349682"
           y="132.00528"
           id="text3"><tspan
             sodipodi:role="line"
             id="tspan3"
             style="font-style:normal;font-variant:normal;font-weight:normal;font-stretch:normal;font-family:'Chess Merida';-inkscape-font-specification:'Chess Merida';fill:#1aa300;fill-opacity:1;stroke:#1aa300;stroke-width:3;stroke-dasharray:none;stroke-opacity:1"
             x="40.349682"
             y="132.00528">n</tspan></text>
        <path
           style="fill:#1aa300;fill-opacity:1;stroke:#1aa300;stroke-width:14.9739"
           d="m 252.89708,454.54961 c 0,-6.58222 7.49851,-17.21959 22.69854,-32.2001 12.42257,-12.24315 16.47053,-17.16667 19.58392,-23.81984 4.69174,-10.02602 7.11161,-21.93192 5.98484,-29.44577 -0.59496,-3.9675 -0.0991,-7.1576 1.80184,-11.59235 3.97324,-9.2692 5.72616,-20.71657 3.95174,-25.80668 -1.7527,-5.02779 -4.6405,-6.81447 -11.01419,-6.81447 -6.91272,0 -9.9914,3.67853 -9.9914,11.93812 0,12.75237 -6.58043,20.84737 -23.11599,28.43642 -13.22465,6.0695 -24.9236,14.29974 -32.83593,23.10015 -3.36425,3.74186 -6.11682,6.20296 -6.11682,5.46912 0,-0.73384 -1.80506,-1.9635 -4.01125,-2.73258 -5.71537,-1.99239 -9.90968,0.0577 -13.16238,6.43353 -2.98532,5.85171 -5.30526,7.39809 -8.90844,5.93802 -1.92971,-0.78194 -1.6026,-1.28075 1.98231,-3.02277 2.71515,-1.31937 4.87584,-3.69704 5.87789,-6.46817 0.87148,-2.41003 2.04414,-4.38188 2.60592,-4.38188 0.56177,0 1.9393,-1.77503 3.06119,-3.94452 1.79339,-3.46803 1.81099,-4.4921 0.14571,-8.47767 -1.99976,-4.78611 -5.4787,-7.38698 -9.88086,-7.38698 -2.27466,0 -1.43695,-1.92012 5.85593,-13.42239 4.68067,-7.38232 8.51031,-13.95305 8.51031,-14.60161 0,-0.64857 1.32078,-0.25411 2.93507,0.87658 3.74005,2.61964 12.08449,2.66354 14.23288,0.0749 0.90421,-1.08951 3.39979,-1.98092 5.54573,-1.98092 5.00463,0 11.62222,-6.36414 11.62222,-11.17709 0,-1.90112 1.26497,-5.16755 2.81105,-7.25873 2.08967,-2.82643 2.57161,-4.76137 1.87802,-7.54004 -1.19276,-4.77848 -4.42085,-8.36004 -7.53497,-8.36004 -3.72843,0 -2.90157,-1.88664 1.5659,-3.57292 3.16721,-1.19549 4.75183,-1.11981 7.59351,0.36264 4.37114,2.28034 5.80206,2.32993 10.14415,0.35154 2.2161,-1.00972 3.79135,-3.1647 4.58536,-6.2729 3.53387,-13.83347 4.26531,-15.95997 5.4896,-15.95997 2.06395,0 4.72451,7.75265 5.6651,16.50764 0.97958,9.11786 3.88118,12.54581 10.61944,12.54581 5.37015,0 9.63275,-3.92394 10.75375,-9.89937 0.47746,-2.54505 1.45724,-4.62736 2.1773,-4.62736 3.23245,0 23.49844,10.68068 29.82198,15.71693 12.66836,10.08945 24.13763,28.40953 31.08543,49.65334 7.23208,22.11303 7.74785,25.88726 8.43684,61.73858 l 0.65351,34.00574 h -61.55237 c -58.43846,0 -61.55238,-0.1205 -61.55238,-2.38193 z"
           id="path4"
           transform="scale(0.26458333)" />
        <path
           style="fill:#1aa300;fill-opacity:1;stroke:#1aa300;stroke-width:7.48693"
           d="m 234.30093,477.00119 c -3.08619,-1.52211 -3.86306,-4.07411 -3.79797,-12.47613 0.0641,-8.27821 1.59953,-15.25724 5.19608,-23.61858 4.79009,-11.1361 7.17778,-14.3728 22.48049,-30.47415 10.43485,-10.97944 15.1088,-16.39442 16.59318,-19.22395 2.22359,-4.23864 3.87105,-8.78657 3.36588,-9.29175 -0.4359,-0.43589 -7.91013,2.44176 -13.0345,5.01841 -14.8166,7.4501 -23.19426,15.80882 -31.09202,31.02171 -3.72651,7.17811 -7.27819,10.8227 -11.87795,12.18869 -1.91536,0.5688 -4.26603,1.03418 -5.2237,1.03418 -3.15289,0 -8.20983,-1.90661 -10.85195,-4.09149 -2.43002,-2.00949 -2.87864,-2.13577 -6.93321,-1.95149 -3.95531,0.17977 -4.80892,-0.0405 -9.74393,-2.51423 -12.41261,-6.222 -19.34046,-18.48988 -19.39316,-34.34157 -0.0385,-11.57431 3.35242,-18.82149 18.54702,-39.63943 5.58414,-7.65075 10.17565,-16.42333 11.09652,-21.20106 0.37744,-1.95822 0.96126,-6.16842 1.29739,-9.35598 0.77067,-7.30831 3.45671,-12.99749 9.95703,-21.08954 l 4.62325,-5.75533 -1.28496,-4.47941 c -2.65023,-9.23882 -3.47303,-15.93865 -3.45193,-28.10798 0.0112,-6.45869 0.18627,-11.90898 0.38905,-12.11175 0.41941,-0.41941 9.93697,2.98641 16.22665,5.80663 8.65063,3.87885 18.44467,10.2413 27.02929,17.55888 l 3.29915,2.81222 1.98353,-3.51463 c 2.48838,-4.40916 7.75903,-10.21184 12.79619,-14.08784 l 3.87323,-2.98039 4.44124,3.30451 c 5.29465,3.93949 8.17046,6.88429 12.34814,12.64437 1.7121,2.3606 3.17975,4.36215 3.26146,4.4479 0.0817,0.0858 3.54501,0.73764 7.69622,1.44864 38.24542,6.55047 68.62159,34.38076 85.45453,78.29244 9.34665,24.38237 11.95339,44.2975 12.68347,96.89986 l 0.40096,28.88837 -83.13308,-0.015 c -73.96389,-0.0134 -83.36344,-0.12865 -85.22159,-1.0451 z m -8.3677,-160.50509 2.79279,-2.76169 -2.22262,-1.31138 -2.22261,-1.31138 -2.36457,4.49979 c -1.30052,2.47488 -2.35062,5.34775 -2.33357,6.38414 l 0.031,1.88436 1.76338,-2.31107 c 0.96987,-1.27108 3.02015,-3.55383 4.55619,-5.07277 z m 12.43713,-30.26977 2.64122,-2.27768 -1.98092,-1.65681 c -2.69731,-2.256 -6.28103,-4.51512 -6.62184,-4.17431 -0.4004,0.4004 2.39719,10.44104 2.90085,10.41127 0.23071,-0.0136 1.60801,-1.04975 3.06069,-2.30247 z"
           id="path5"
           transform="scale(0.26458333)" />
      </g>
      <text
         xml:space="preserve"
         style="font-style:normal;font-variant:normal;font-weight:normal;font-stretch:normal;font-size:70.5556px;font-family:'Chess Berlin';-inkscape-font-specification:'Chess Berlin';text-align:start;writing-mode:lr-tb;direction:ltr;text-anchor:start;fill:#ffffff;fill-opacity:1;stroke-width:0;stroke-dasharray:none"
         x="40.327633"
         y="132.03217"
         id="text4"><tspan
           sodipodi:role="line"
           id="tspan4"
           style="font-style:normal;font-variant:normal;font-weight:normal;font-stretch:normal;font-family:'Chess Merida';-inkscape-font-specification:'Chess Merida';fill:#ffffff;fill-opacity:1;stroke-width:0;stroke-dasharray:none"
           x="40.327633"
           y="132.03217">n</tspan></text>
    </g>
  </g>
</svg>
