<?xml version="1.0" encoding="UTF-8" standalone="no"?>
<!-- Created with Inkscape (http://www.inkscape.org/) -->

<svg
   width="70.555557mm"
   height="70.555557mm"
   viewBox="0 0 70.555557 70.555557"
   version="1.1"
   id="svg1"
   inkscape:version="1.4 (86a8ad7, 2024-10-11)"
   sodipodi:docname="jose.svg"
   xmlns:inkscape="http://www.inkscape.org/namespaces/inkscape"
   xmlns:sodipodi="http://sodipodi.sourceforge.net/DTD/sodipodi-0.dtd"
   xmlns="http://www.w3.org/2000/svg"
   xmlns:svg="http://www.w3.org/2000/svg">
  <sodipodi:namedview
     id="namedview1"
     pagecolor="#ffffff"
     bordercolor="#000000"
     borderopacity="0.25"
     inkscape:showpageshadow="2"
     inkscape:pageopacity="0.0"
     inkscape:pagecheckerboard="0"
     inkscape:deskcolor="#d1d1d1"
     inkscape:document-units="mm"
     inkscape:zoom="1.5144501"
     inkscape:cx="248.60509"
     inkscape:cy="87.160349"
     inkscape:window-width="1820"
     inkscape:window-height="1052"
     inkscape:window-x="92"
     inkscape:window-y="-8"
     inkscape:window-maximized="1"
     inkscape:current-layer="g7" />
  <defs
     id="defs1" />
  <g
     inkscape:label="Ebene 1"
     inkscape:groupmode="layer"
     id="layer1"
     transform="translate(-39.832939,-61.845886)">
    <g
       id="g7"
       inkscape:export-filename="ico\jose24.png"
       inkscape:export-xdpi="8.6399994"
       inkscape:export-ydpi="8.6399994">
      <g
         id="g6">
        <rect
           style="display:inline;fill:#05059b;fill-opacity:1;stroke-width:0.615559"
           id="rect2"
           width="70.555557"
           height="70.555557"
           x="39.832939"
           y="61.845886" />
        <path
           style="display:inline;fill:#1aa300;fill-opacity:1;stroke:#1aa300;stroke-width:7.48693"
           d="m 234.30093,477.00119 c -3.08619,-1.52211 -3.86306,-4.07411 -3.79797,-12.47613 0.0641,-8.27821 1.59953,-15.25724 5.19608,-23.61858 4.79009,-11.1361 7.17778,-14.3728 22.48049,-30.47415 10.43485,-10.97944 15.1088,-16.39442 16.59318,-19.22395 2.22359,-4.23864 3.87105,-8.78657 3.36588,-9.29175 -0.4359,-0.43589 -7.91013,2.44176 -13.0345,5.01841 -14.8166,7.4501 -23.19426,15.80882 -31.09202,31.02171 -3.72651,7.17811 -7.27819,10.8227 -11.87795,12.18869 -1.91536,0.5688 -4.26603,1.03418 -5.2237,1.03418 -3.15289,0 -8.20983,-1.90661 -10.85195,-4.09149 -2.43002,-2.00949 -2.87864,-2.13577 -6.93321,-1.95149 -3.95531,0.17977 -4.80892,-0.0405 -9.74393,-2.51423 -12.41261,-6.222 -19.34046,-18.48988 -19.39316,-34.34157 -0.0385,-11.57431 3.35242,-18.82149 18.54702,-39.63943 5.58414,-7.65075 10.17565,-16.42333 11.09652,-21.20106 0.37744,-1.95822 0.96126,-6.16842 1.29739,-9.35598 0.77067,-7.30831 3.45671,-12.99749 9.95703,-21.08954 l 4.62325,-5.75533 -1.28496,-4.47941 c -2.65023,-9.23882 -3.47303,-15.93865 -3.45193,-28.10798 0.0112,-6.45869 0.18627,-11.90898 0.38905,-12.11175 0.41941,-0.41941 9.93697,2.98641 16.22665,5.80663 8.65063,3.87885 18.44467,10.2413 27.02929,17.55888 l 3.29915,2.81222 1.98353,-3.51463 c 2.48838,-4.40916 7.75903,-10.21184 12.79619,-14.08784 l 3.87323,-2.98039 4.44124,3.30451 c 5.29465,3.93949 8.17046,6.88429 12.34814,12.64437 1.7121,2.3606 3.17975,4.36215 3.26146,4.4479 0.0817,0.0858 3.54501,0.73764 7.69622,1.44864 38.24542,6.55047 68.62159,34.38076 85.45453,78.29244 9.34665,24.38237 11.95339,44.2975 12.68347,96.89986 l 0.40096,28.88837 -83.13308,-0.015 c -73.96389,-0.0134 -83.36344,-0.12865 -85.22159,-1.0451 z m -8.3677,-160.50509 2.79279,-2.76169 -2.22262,-1.31138 -2.22261,-1.31138 -2.36457,4.49979 c -1.30052,2.47488 -2.35062,5.34775 -2.33357,6.38414 l 0.031,1.88436 1.76338,-2.31107 c 0.96987,-1.27108 3.02015,-3.55383 4.55619,-5.07277 z m 12.43713,-30.26977 2.64122,-2.27768 -1.98092,-1.65681 c -2.69731,-2.256 -6.28103,-4.51512 -6.62184,-4.17431 -0.4004,0.4004 2.39719,10.44104 2.90085,10.41127 0.23071,-0.0136 1.60801,-1.04975 3.06069,-2.30247 z"
           id="path5"
           transform="scale(0.26458333)" />
      </g>
      <path
         style="font-size:70.5556px;font-family:'Chess Merida';-inkscape-font-specification:'Chess Merida';display:inline;fill:#ffffff;stroke-width:0"
         d="m 64.339965,85.213286 q 0.447862,0.68902 0.344509,1.446941 -0.344509,2.204863 -2.446019,1.860353 -0.620118,-0.103353 -0.999078,-0.413411 -0.137804,0.172254 -0.413412,0.757921 -0.378961,1.102431 -1.446941,0.757922 -1.067981,-0.413412 -0.826824,-1.550294 1.550294,-3.961863 5.61551,-5.443255 1.171333,-0.34451 1.550294,0.68902 0.413411,1.102431 -0.620118,1.515843 -0.206706,0.103353 -0.378961,0.206705 -0.172255,0.0689 -0.37896,0.172255 z M 54.108024,101.6464 q -0.999078,0.62012 -1.205784,1.65365 0.03445,1.13688 -1.06798,1.24024 -1.205785,0.1378 -1.240236,-1.03353 0.137804,-2.27377 2.032608,-3.617357 0.895725,-0.723471 1.653647,0.137807 0.757922,0.93017 -0.172255,1.61919 z M 77.500238,73.568856 q 5.408804,0.34451 10.025235,2.790529 4.616431,2.446019 7.854823,6.270078 2.273764,2.687176 4.271921,6.476784 2.032603,3.789607 3.238393,8.027078 1.37804,4.926485 1.72255,10.369745 0.37896,5.4088 0.37896,10.02523 v 7.51032 q -10.714255,0 -19.258098,0 H 62.617416 q -0.310059,0 -0.310059,-1.6881 0.03445,-1.6881 0.241157,-2.72163 0.137804,-0.82682 0.654568,-2.34266 0.516765,-1.51585 1.722549,-3.68626 0.551216,-1.10243 2.618275,-3.20394 2.067058,-2.13596 4.754235,-4.92649 1.550294,-1.58475 2.411568,-3.99631 0.895725,-2.41157 0.757922,-4.375278 -1.274687,1.033529 -2.79053,1.688098 -7.303607,2.61827 -10.57645,7.57922 -0.241157,0.31005 -1.550294,2.79052 -0.68902,1.30914 -1.171333,1.79146 -0.654569,0.65456 -1.894804,0.72347 -1.929255,0.10335 -2.997235,-1.86036 -1.446941,0.41341 -2.583823,0.34451 -1.929255,-0.72347 -2.79053,-1.55029 -1.757,-1.757 -2.308215,-3.514 -0.516765,-1.757 -0.516765,-3.78961 0,-2.893881 3.582902,-7.648116 4.203019,-5.477705 4.478627,-8.337136 0,-1.240236 0.241157,-2.79053 0.206706,-1.06798 0.861274,-2.067058 0.447863,-0.68902 0.585667,-0.930177 0.172255,-0.275607 0.585667,-0.792372 0.310058,-0.413412 0.516764,-0.620118 0.206706,-0.241157 0.516765,-0.620117 0.378961,-0.447863 0.964627,-1.03353 -1.825902,-5.029842 -1.481392,-10.369744 6.855745,2.446019 11.506627,7.682568 1.136882,-3.89296 4.478627,-6.304529 2.756078,1.929255 4.375274,5.098745 z M 100.82355,122.5926 q -0.0344,0 0.0689,-1.86036 0.10336,-1.8948 0.10336,-4.06521 0.0344,-4.30637 0,-8.88835 -0.0345,-4.61643 -1.24024,-9.198414 -1.171333,-4.409725 -2.583823,-7.510313 -1.41249,-3.135039 -3.066137,-5.408804 -2.480471,-3.720706 -6.752392,-6.304529 -4.271921,-2.583823 -8.922803,-3.376196 0.310058,1.688098 0.275607,3.307294 -0.0689,1.240235 -1.171333,1.240235 -1.274686,0 -1.136882,-1.240235 0.103353,-4.547529 -3.238392,-7.785921 -2.618274,2.756078 -2.82498,6.407882 -0.0689,1.205784 -1.240235,1.06798 -1.102432,-0.03445 -1.102432,-1.274686 l 0.0689,-0.275608 q -1.41249,0.447863 -2.962784,1.274687 -0.999078,0.689019 -1.619196,-0.34451 -0.620117,-1.03353 0.551216,-1.619196 1.481392,-0.757922 2.239313,-1.136883 -2.962784,-3.031686 -6.752391,-4.892038 0.413411,4.788686 2.618274,9.060607 0.585667,0.895725 -0.275608,1.584745 -0.964627,0.757921 -1.619196,-0.241157 -0.241157,-0.34451 -0.689019,-1.240235 -0.723471,0.72347 -0.964628,1.06798 -0.241157,0.310059 -0.861274,1.378039 -0.585667,1.067981 -0.861275,1.757 -0.310058,0.861275 -0.275607,1.41249 0.0689,0.516765 0.103352,1.171333 -0.310058,2.032608 -1.41249,3.824059 -1.06798,1.791451 -2.756078,4.375274 -1.619196,2.480471 -2.48047,3.720706 -0.861275,1.240235 -1.309137,3.169494 -0.310059,1.17133 0,2.85943 0.310058,1.65364 1.343588,2.58382 1.584745,1.6192 3.066137,1.48139 0.482313,0 1.274686,-0.37896 0.826823,-0.37896 1.274686,-1.44694 0.895726,-1.96371 1.481392,-1.96371 0.861275,0 0.930177,0.96463 0,0.20671 -0.551216,1.72255 -0.310059,0.68902 -0.826824,1.44694 -0.654568,0.89573 -0.585666,0.75792 0.551215,1.96371 1.825902,0.68902 0.37896,-0.37896 0.861274,-1.41249 0.482314,-1.03353 1.515843,-2.79053 1.205784,-2.0326 2.583823,-3.30729 1.37804,-1.27469 2.44602,-2.06706 0.620118,-0.44786 1.515843,-1.033528 0.895725,-0.585667 2.411568,-1.205784 1.205785,-0.482314 2.652726,-1.171333 1.481392,-0.723471 2.618274,-1.825902 1.584745,-1.550294 2.44602,-3.824059 0.447862,-1.274686 0.344509,-3.135039 -0.310059,-1.171333 1.171334,-1.171333 1.102431,0 1.240235,1.136882 0,3.892961 -2.204863,7.096902 0.723471,2.204862 0.378961,4.823134 -0.310059,2.10151 -1.481392,4.51308 -1.136882,2.37712 -4.650882,5.30545 -7.131353,5.92557 -6.752392,12.19565 11.747784,0 16.91543,0 z"
         id="text4"
         aria-label="n" />
    </g>
  </g>
</svg>
